0
SECTION
2
HEADER
9
$INSUNITS
70
4
9
$ACADVER
1
AC1014
9
$HANDSEED
5
FFFF
0
ENDSEC
0
SECTION
2
TABLES
0
TABLE
2
VPORT
5
8
100
AcDbSymbolTable
0
ENDTAB
0
TABLE
2
LTYPE
5
5
100
AcDbSymbolTable
0
LTYPE
5
14
100
AcDbSymbolTableRecord
100
AcDbLinetypeTableRecord
2
BYBLOCK
70
0
0
LTYPE
5
15
100
AcDbSymbolTableRecord
100
AcDbLinetypeTableRecord
2
BYLAYER
70
0
0
ENDTAB
0
TABLE
2
LAYER
5
2
100
AcDbSymbolTable
70
2
0
LAYER
5
50
100
AcDbSymbolTableRecord
100
AcDbLayerTableRecord
2
0
70
0
6
CONTINUOUS
0
ENDTAB
0
TABLE
2
STYLE
5
3
100
AcDbSymbolTable
70
1
0
STYLE
5
11
100
AcDbSymbolTableRecord
100
AcDbTextStyleTableRecord
2
STANDARD
70
0
0
ENDTAB
0
TABLE
2
VIEW
5
6
100
AcDbSymbolTable
70
0
0
ENDTAB
0
TABLE
2
UCS
5
7
100
AcDbSymbolTable
70
0
0
ENDTAB
0
TABLE
2
APPID
5
9
100
AcDbSymbolTable
70
2
0
APPID
5
12
100
AcDbSymbolTableRecord
100
AcDbRegAppTableRecord
2
ACAD
70
0
0
ENDTAB
0
TABLE
2
DIMSTYLE
5
A
100
AcDbSymbolTable
70
1
0
ENDTAB
0
TABLE
2
BLOCK_RECORD
5
1
100
AcDbSymbolTable
70
1
0
BLOCK_RECORD
5
1F
100
AcDbSymbolTableRecord
100
AcDbBlockTableRecord
2
*MODEL_SPACE
0
BLOCK_RECORD
5
1B
100
AcDbSymbolTableRecord
100
AcDbBlockTableRecord
2
*PAPER_SPACE
0
ENDTAB
0
ENDSEC
0
SECTION
2
BLOCKS
0
BLOCK
5
20
100
AcDbEntity
100
AcDbBlockBegin
2
*MODEL_SPACE
0
ENDBLK
5
21
100
AcDbEntity
100
AcDbBlockEnd
0
BLOCK
5
1C
100
AcDbEntity
100
AcDbBlockBegin
2
*PAPER_SPACE
0
ENDBLK
5
1D
100
AcDbEntity
100
AcDbBlockEnd
0
ENDSEC
0
SECTION
2
ENTITIES
0
LWPOLYLINE
5
100
100
AcDbEntity
8
0
100
AcDbPolyline
90
76
70
1
43
0.0
10
174.55000000000436
20
60.000000000001599
42
2.414213562373134
10
173.80000000000436
20
59.250000000001549
10
173.80000000000436
20
20.750000000000533
42
2.4142135623731447
10
174.55000000000436
20
20.000000000000533
10
180.00000000000225
20
20.000000000000266
10
180.00000000000225
20
-20.000000000000266
10
174.55000000000436
20
-20.000000000000533
42
2.4142135623731447
10
173.80000000000436
20
-20.750000000000533
10
173.80000000000436
20
-59.250000000001599
42
2.414213562373134
10
174.55000000000436
20
-60.000000000001599
10
180.00000000000227
20
-60.000000000000796
10
180.00000000000227
20
-100.00000000000134
10
140.00000000000176
20
-100.00000000000134
10
140.00000000000352
20
-94.550000000002512
42
2.4142135623730949
10
139.25000000000352
20
-93.800000000002498
10
100.75000000000253
20
-93.800000000002498
42
2.4142135623730949
10
100.00000000000253
20
-94.550000000002512
10
100.00000000000126
20
-100.00000000000134
10
60.000000000000767
20
-100.00000000000134
10
60.000000000001528
20
-94.550000000002512
42
2.4142135623731145
10
59.250000000001521
20
-93.800000000002498
10
20.750000000000544
20
-93.800000000002498
42
2.4142135623731038
10
20.000000000000533
20
-94.550000000002527
10
20.000000000000266
20
-100.00000000000134
10
-20.000000000000231
20
-100.00000000000134
10
-20.000000000000462
20
-94.550000000002512
42
2.4142135623731038
10
-20.750000000000473
20
-93.800000000002498
10
-59.25000000000145
20
-93.800000000002498
42
2.4142135623731145
10
-60.000000000001457
20
-94.550000000002527
10
-60.000000000000725
20
-100.00000000000134
10
-100.00000000000122
20
-100.00000000000134
10
-100.00000000000244
20
-94.550000000002512
42
2.4142135623730949
10
-100.75000000000244
20
-93.800000000002498
10
-139.25000000000344
20
-93.800000000002498
42
2.4142135623730949
10
-140.00000000000344
20
-94.550000000002512
10
-140.00000000000171
20
-100.00000000000134
10
-180.00000000000225
20
-100.00000000000134
10
-180.00000000000225
20
-60.000000000000796
10
-174.55000000000436
20
-60.000000000001599
42
2.414213562373134
10
-173.80000000000436
20
-59.250000000001599
10
-173.80000000000436
20
-20.750000000000533
42
2.4142135623731447
10
-174.55000000000436
20
-20.000000000000533
10
-180.00000000000225
20
-20.000000000000266
10
-180.00000000000225
20
20.000000000000266
10
-174.55000000000436
20
20.000000000000533
42
2.4142135623731447
10
-173.80000000000436
20
20.750000000000533
10
-173.80000000000436
20
59.250000000001599
42
2.414213562373134
10
-174.55000000000436
20
60.000000000001599
10
-180.00000000000227
20
60.000000000000796
10
-180.00000000000227
20
100.00000000000134
10
-140.00000000000176
20
100.00000000000134
10
-140.00000000000352
20
94.550000000002512
42
2.4142135623730949
10
-139.25000000000352
20
93.800000000002498
10
-100.75000000000253
20
93.800000000002498
42
2.4142135623730949
10
-100.00000000000253
20
94.550000000002512
10
-100.00000000000126
20
100.00000000000134
10
-60.000000000000767
20
100.00000000000134
10
-60.000000000001528
20
94.550000000002512
42
2.4142135623731145
10
-59.250000000001521
20
93.800000000002498
10
-20.750000000000544
20
93.800000000002498
42
2.4142135623731038
10
-20.000000000000533
20
94.550000000002512
10
-20.000000000000266
20
100.00000000000134
10
20.000000000000231
20
100.00000000000134
10
20.000000000000462
20
94.550000000002512
42
2.4142135623731038
10
20.750000000000473
20
93.800000000002498
10
59.25000000000145
20
93.800000000002498
42
2.4142135623731145
10
60.000000000001457
20
94.550000000002527
10
60.000000000000725
20
100.00000000000134
10
100.00000000000122
20
100.00000000000134
10
100.00000000000244
20
94.550000000002512
42
2.4142135623730949
10
100.75000000000244
20
93.800000000002498
10
139.25000000000344
20
93.800000000002498
42
2.4142135623730949
10
140.00000000000344
20
94.550000000002512
10
140.00000000000171
20
100.00000000000134
10
180.00000000000225
20
100.00000000000134
10
180.00000000000225
20
60.000000000000796
0
CIRCLE
5
101
100
AcDbEntity
8
0
100
AcDbCircle
10
-132.00000000000864
20
53.587500000000219
30
2.2177825734042718e-13
40
3.1500000000000519
210
1.6807278885224294e-15
220
1.4522779481779265e-18
230
1
0
CIRCLE
5
102
100
AcDbEntity
8
0
100
AcDbCircle
10
-132.00000000000361
20
-52.0000000000163
30
2.2193159973827202e-13
40
3.1500000000000519
210
1.6807278885224294e-15
220
1.4522779481779265e-18
230
1
0
CIRCLE
5
103
100
AcDbEntity
8
0
100
AcDbCircle
10
131.99999999997263
20
53.587500000000013
30
-2.2193390522946267e-13
40
3.1500000000000519
210
1.6807278885224294e-15
220
1.4522779481779265e-18
230
1
0
CIRCLE
5
104
100
AcDbEntity
8
0
100
AcDbCircle
10
131.99999999997766
20
-52.000000000003496
30
-2.2178056283161785e-13
40
3.1500000000000519
210
1.6807278885224294e-15
220
1.4522779481779265e-18
230
1
0
ENDSEC
0
SECTION
2
OBJECTS
0
DICTIONARY
5
C
100
AcDbDictionary
3
ACAD_GROUP
350
D
3
ACAD_MLINESTYLE
350
17
0
DICTIONARY
5
D
100
AcDbDictionary
0
DICTIONARY
5
1A
330
C
100
AcDbDictionary
0
DICTIONARY
5
17
100
AcDbDictionary
0
ENDSEC
0
EOF
