0
SECTION
2
HEADER
9
$INSUNITS
70
4
9
$ACADVER
1
AC1014
9
$HANDSEED
5
FFFF
0
ENDSEC
0
SECTION
2
TABLES
0
TABLE
2
VPORT
5
8
100
AcDbSymbolTable
0
ENDTAB
0
TABLE
2
LTYPE
5
5
100
AcDbSymbolTable
0
LTYPE
5
14
100
AcDbSymbolTableRecord
100
AcDbLinetypeTableRecord
2
BYBLOCK
70
0
0
LTYPE
5
15
100
AcDbSymbolTableRecord
100
AcDbLinetypeTableRecord
2
BYLAYER
70
0
0
ENDTAB
0
TABLE
2
LAYER
5
2
100
AcDbSymbolTable
70
2
0
LAYER
5
50
100
AcDbSymbolTableRecord
100
AcDbLayerTableRecord
2
0
70
0
6
CONTINUOUS
0
ENDTAB
0
TABLE
2
STYLE
5
3
100
AcDbSymbolTable
70
1
0
STYLE
5
11
100
AcDbSymbolTableRecord
100
AcDbTextStyleTableRecord
2
STANDARD
70
0
0
ENDTAB
0
TABLE
2
VIEW
5
6
100
AcDbSymbolTable
70
0
0
ENDTAB
0
TABLE
2
UCS
5
7
100
AcDbSymbolTable
70
0
0
ENDTAB
0
TABLE
2
APPID
5
9
100
AcDbSymbolTable
70
2
0
APPID
5
12
100
AcDbSymbolTableRecord
100
AcDbRegAppTableRecord
2
ACAD
70
0
0
ENDTAB
0
TABLE
2
DIMSTYLE
5
A
100
AcDbSymbolTable
70
1
0
ENDTAB
0
TABLE
2
BLOCK_RECORD
5
1
100
AcDbSymbolTable
70
1
0
BLOCK_RECORD
5
1F
100
AcDbSymbolTableRecord
100
AcDbBlockTableRecord
2
*MODEL_SPACE
0
BLOCK_RECORD
5
1B
100
AcDbSymbolTableRecord
100
AcDbBlockTableRecord
2
*PAPER_SPACE
0
ENDTAB
0
ENDSEC
0
SECTION
2
BLOCKS
0
BLOCK
5
20
100
AcDbEntity
100
AcDbBlockBegin
2
*MODEL_SPACE
0
ENDBLK
5
21
100
AcDbEntity
100
AcDbBlockEnd
0
BLOCK
5
1C
100
AcDbEntity
100
AcDbBlockBegin
2
*PAPER_SPACE
0
ENDBLK
5
1D
100
AcDbEntity
100
AcDbBlockEnd
0
ENDSEC
0
SECTION
2
ENTITIES
0
LWPOLYLINE
5
100
100
AcDbEntity
8
0
100
AcDbPolyline
90
8
70
1
43
0.0
10
366.52333861733268
20
-142.37325382033353
42
0.45082025159790984
10
366.76152621665403
20
-143.08373528511578
42
-0.33327418096066819
10
370.98673311910113
20
-150.342357241076
42
0.44868550481851088
10
371.48335871470402
20
-150.90034877314832
10
378.73568070283159
20
-150.90034877314847
42
0.57735026918963372
10
379.60170610661601
20
-149.40034877314847
10
371.90000018444465
20
-136.06060281099411
42
0.57735026918959287
10
370.16794937687587
20
-136.060602810994
0
LWPOLYLINE
5
101
100
AcDbEntity
8
0
100
AcDbPolyline
90
6
70
1
43
0.0
10
297.80304345470535
20
-149.40034877314847
10
305.50474937687648
20
-136.06060281099332
42
-0.57735026918963028
10
307.23680018444537
20
-136.06060281099329
10
314.9385061066165
20
-149.40034877314849
42
-0.57735026918962351
10
314.07248070283208
20
-150.90034877314847
10
298.66906885848977
20
-150.90034877314844
42
-0.5773502691896184
0
LWPOLYLINE
5
102
100
AcDbEntity
8
0
100
AcDbPolyline
90
6
70
1
43
0.0
10
235.86410179958312
20
-116.00100237257348
10
249.20384776173859
20
-123.70270829474462
42
-0.57735026918963617
10
249.20384776173861
20
-125.43475910231351
10
235.8641017995831
20
-133.13646502448512
42
-0.57735026918962573
10
234.36410179958307
20
-132.27043962070067
10
234.36410179958315
20
-116.86702777635794
42
-0.57735026918961241
0
LWPOLYLINE
5
103
100
AcDbEntity
8
0
100
AcDbPolyline
90
6
70
1
43
0.0
10
235.86410179958312
20
-51.337802372572881
10
249.20384776173816
20
-59.039508294744692
42
-0.57735026918963028
10
249.20384776173813
20
-60.771559102313574
10
235.86410179958239
20
-68.473265024485187
42
-0.57735026918964183
10
234.36410179958239
20
-67.607239620700696
10
234.36410179958315
20
-52.203827776357258
42
-0.57735026918961685
0
LWPOLYLINE
5
104
100
AcDbEntity
8
0
100
AcDbPolyline
90
6
70
1
43
0.0
10
236.86410179958276
20
-107.53691583205469
10
250.20384776173813
20
-99.835209909882593
42
-0.57735026918962851
10
251.70384776173816
20
-100.70123531366704
10
251.70384776173813
20
-116.10464715801137
42
-0.57735026918964183
10
250.20384776173807
20
-116.97067256179579
10
236.86410179958276
20
-109.26896663962356
42
-0.57735026918959953
0
LWPOLYLINE
5
105
100
AcDbEntity
8
0
100
AcDbPolyline
90
6
70
1
43
0.0
10
289.33894183956704
20
-148.40034877314818
10
281.63723591739506
20
-135.06060281099241
42
-0.57735026918962939
10
282.50326132117954
20
-133.56060281099241
10
297.90667316552253
20
-133.56060281099244
42
-0.5773502691896073
10
298.77269856930701
20
-135.06060281099241
10
291.07099264713599
20
-148.40034877314812
42
-0.57735026918963617
0
LWPOLYLINE
5
106
100
AcDbEntity
8
0
100
AcDbPolyline
90
6
70
1
43
0.0
10
347.16646132117955
20
-133.56060281099249
10
362.56987316552312
20
-133.56060281099258
42
-0.57735026918962351
10
363.43589856930754
20
-135.06060281099255
10
355.73419264713607
20
-148.40034877314829
42
-0.57735026918962529
10
354.00214183956723
20
-148.40034877314832
10
346.30043591739513
20
-135.06060281099252
42
-0.57735026918963384
0
LWPOLYLINE
5
107
100
AcDbEntity
8
0
100
AcDbPolyline
90
6
70
1
43
0.0
10
331.10429856930699
20
-135.06060281099246
10
323.40259264713598
20
-148.40034877314829
42
-0.57735026918964061
10
321.67054183956708
20
-148.40034877314835
10
313.9688359173951
20
-135.06060281099249
42
-0.57735026918962851
10
314.83486132117952
20
-133.56060281099249
10
330.23827316552257
20
-133.56060281099252
42
-0.5773502691896133
0
LWPOLYLINE
5
108
100
AcDbEntity
8
0
100
AcDbPolyline
90
6
70
1
43
0.0
10
236.86410179958295
20
-139.86851583205467
10
250.20384776173799
20
-132.16680990988257
42
-0.57735026918964183
10
251.70384776173805
20
-133.03283531366699
10
251.70384776173805
20
-148.43624715801135
42
-0.57735026918964183
10
250.20384776173799
20
-149.30227256179577
10
236.86410179958295
20
-141.60056663962351
42
-0.57735026918959664
0
LWPOLYLINE
5
109
100
AcDbEntity
8
0
100
AcDbPolyline
90
6
70
1
43
0.0
10
236.86410179958304
20
-75.205315832054239
10
250.20384776173816
20
-67.503609909882528
42
-0.57735026918962851
10
251.70384776173819
20
-68.369635313666961
10
251.70384776173816
20
-83.773047158010442
42
-0.57735026918962851
10
250.20384776173813
20
-84.639072561794876
10
236.86410179958304
20
-76.937366639623107
42
-0.57735026918962007
0
LWPOLYLINE
5
110
100
AcDbEntity
8
0
100
AcDbPolyline
90
6
70
1
43
0.0
10
235.86410179958233
20
-83.669402372572975
10
249.20384776173793
20
-91.37110829474473
42
-0.57735026918962007
10
249.20384776173793
20
-93.103159102313597
10
235.86410179958307
20
-100.80486502448514
42
-0.57735026918961085
10
234.36410179958304
20
-99.938839620700733
10
234.3641017995823
20
-84.535427776357494
42
-0.57735026918964039
0
LWPOLYLINE
5
111
100
AcDbEntity
8
0
100
AcDbPolyline
90
6
70
1
43
0.0
10
265.47144345470537
20
-149.40034877314844
10
273.17314937687649
20
-136.06060281099329
42
-0.57735026918963028
10
274.90520018444533
20
-136.06060281099329
10
282.60690610661646
20
-149.40034877314844
42
-0.57735026918962351
10
281.74088070283199
20
-150.90034877314844
10
266.33746885848979
20
-150.90034877314832
42
-0.57735026918961918
0
LWPOLYLINE
5
112
100
AcDbEntity
8
0
100
AcDbPolyline
90
6
70
1
43
0.0
10
330.13464345470538
20
-149.40034877314849
10
337.83634937687657
20
-136.06060281099334
42
-0.5773502691896627
10
339.56840018444552
20
-136.06060281099343
10
347.27010610661631
20
-149.40034877314855
42
-0.5773502691896133
10
346.40408070283183
20
-150.90034877314852
10
331.0006688584898
20
-150.90034877314847
42
-0.57735026918962351
0
CIRCLE
5
113
100
AcDbEntity
8
0
100
AcDbCircle
10
250.18397478066004
20
-24.380475792070104
30
0
40
11.500000000000002
210
0
220
-0
230
1
0
CIRCLE
5
114
100
AcDbEntity
8
0
100
AcDbCircle
10
234.68397478065
20
-8.8804757920593609
30
0
40
1.7500000000000102
210
0
220
-0
230
1
0
CIRCLE
5
115
100
AcDbEntity
8
0
100
AcDbCircle
10
265.68397478069102
20
-39.8804757921001
30
0
40
1.7500000000000102
210
0
220
-0
230
1
0
CIRCLE
5
116
100
AcDbEntity
8
0
100
AcDbCircle
10
234.68397478065199
20
-39.880475792059002
30
0
40
1.7500000000000102
210
0
220
-0
230
1
0
CIRCLE
5
117
100
AcDbEntity
8
0
100
AcDbCircle
10
265.68397478064998
20
-8.8804757921000501
30
0
40
1.7500000000000102
210
0
220
-0
230
1
0
CIRCLE
5
118
100
AcDbEntity
8
0
100
AcDbCircle
10
368.03397478066006
20
-38.230475792070102
30
0
40
2.5800000000000303
210
0
220
0
230
1
0
CIRCLE
5
119
100
AcDbEntity
8
0
100
AcDbCircle
10
364.03397478066012
20
-149.53047579207029
30
0
40
2.5800000000000303
210
0
220
0
230
1
0
CIRCLE
5
120
100
AcDbEntity
8
0
100
AcDbCircle
10
391.03397478066
20
-25.730475792070102
30
0
40
2.5799999999999601
210
0
220
0
230
1
0
CIRCLE
5
121
100
AcDbEntity
8
0
100
AcDbCircle
10
391.03397478066
20
-132.23047579207
30
0
40
1.30000000000003
210
0
220
-0
230
1
0
CIRCLE
5
122
100
AcDbEntity
8
0
100
AcDbCircle
10
383.03397478066006
20
-132.23047579207
30
0
40
1.30000000000003
210
0
220
-0
230
1
0
CIRCLE
5
123
100
AcDbEntity
8
0
100
AcDbCircle
10
260.58005938687199
20
-142.23047579207
30
0
40
3.4800000000000004
210
0
220
-0
230
1
0
CIRCLE
5
124
100
AcDbEntity
8
0
100
AcDbCircle
10
391.03397478065904
20
-3.2304757920715899
30
0
40
3.4800000000000102
210
0
220
-0
230
1
0
CIRCLE
5
125
100
AcDbEntity
8
0
100
AcDbCircle
10
387.03397478065904
20
-142.23047579207099
30
0
40
3.4800000000000102
210
0
220
-0
230
1
0
CIRCLE
5
126
100
AcDbEntity
8
0
100
AcDbCircle
10
387.03397478065904
20
-34.230475792071303
30
0
40
3.4800000000000102
210
0
220
-0
230
1
0
CIRCLE
5
127
100
AcDbEntity
8
0
100
AcDbCircle
10
332.03397478066
20
-8.4804757920718998
30
0
40
2.5800000000000303
210
0
220
-0
230
1
0
CIRCLE
5
128
100
AcDbEntity
8
0
100
AcDbCircle
10
399.03397478066205
20
-15.730475792067402
30
0
40
1.3050000000000002
210
0
220
-0
230
1
0
CIRCLE
5
129
100
AcDbEntity
8
0
100
AcDbCircle
10
399.03397478066302
20
-35.730475792067502
30
0
40
1.3050000000000002
210
0
220
-0
230
1
0
LWPOLYLINE
5
130
100
AcDbEntity
8
0
100
AcDbPolyline
90
32
70
1
43
0.0
10
407.03397478065995
20
-10.810150122035001
42
0.21521536069944533
10
405.84935915216386
20
-8.1854605761656583
10
400.32147115521298
20
-3.30900366502203
10
394.94860032355405
20
1.3165789534679007
42
0.51562672833729561
10
385.45602054929486
20
-1.0199494762806114
42
-0.30755289761724725
10
382.20221391433199
20
-3.2304757920701235
10
232.53397478066003
20
-3.2304757920700706
42
0.41421356237308721
10
229.03397478066
20
-6.7304757920700622
10
229.03397478066
20
-142.36851583205402
42
0.26794919243112797
10
229.78397478066012
20
-143.66755393773073
10
251.19551751254102
20
-156.02951389774699
42
0.13165249758735995
10
251.94551751254099
20
-156.23047579207
10
381.50769533903099
20
-156.23047579207
42
0.26794919243114251
10
384.53878425227674
20
-154.48047579206974
10
385.40480965606105
20
-152.98047579207008
42
-0.26794919243113069
10
391.03397478066
20
-149.73047579207002
10
391.43181805092098
20
-149.73047579207
42
0.26794919243110654
10
394.46290696416634
20
-147.98047579207019
10
402.93256207876829
20
-133.31060281099218
42
-0.26794919243115806
10
404.23160018444503
20
-132.56060281099201
10
407.03397478066
20
-132.56060281099201
10
407.03397478066
20
-128.23047579207
10
268.10832282845001
20
-128.23047579207002
42
-0.131652497587367
10
267.35832282845018
20
-128.02951389774674
10
257.78397478066017
20
-122.50176147503976
42
-0.26794919243115334
10
257.03397478066
20
-121.20272336936301
10
257.03397478066
20
-49.730475792070109
42
-0.41421356237309503
10
258.53397478066
20
-48.230475792070102
10
399.58422731235402
20
-48.230475792070102
42
0.19891236737970483
10
402.05910104650729
20
-47.20534952622269
10
406.00884851481305
20
-43.255602057917599
42
0.19891236737965701
10
407.03397478066
20
-40.780728323764407
0
CIRCLE
5
131
100
AcDbEntity
8
0
100
AcDbCircle
10
320.61976121829281
20
-42.730475792050484
30
0
40
1.3050000000000139
210
0
220
-0
230
1
0
CIRCLE
5
132
100
AcDbEntity
8
0
100
AcDbCircle
10
375.53397478065853
20
-44.230475792071502
30
0
40
1.3049999999999784
210
0
220
-0
230
1
0
CIRCLE
5
133
100
AcDbEntity
8
0
100
AcDbCircle
10
360.61976121829173
20
-42.730475792074508
30
0
40
1.3049999999999784
210
0
220
-0
230
1
0
CIRCLE
5
134
100
AcDbEntity
8
0
100
AcDbCircle
10
308.64166993524884
20
-19.730475792074447
30
0
40
1.3050000000000139
210
0
220
-0
230
1
0
CIRCLE
5
135
100
AcDbEntity
8
0
100
AcDbCircle
10
375.53397478065949
20
-7.230475792071493
30
0
40
1.3049999999999784
210
0
220
-0
230
1
0
CIRCLE
5
136
100
AcDbEntity
8
0
100
AcDbCircle
10
360.61976121831174
20
-8.7304757920744525
30
0
40
1.3049999999999784
210
0
220
-0
230
1
0
CIRCLE
5
137
100
AcDbEntity
8
0
100
AcDbCircle
10
286.11802302409069
20
-16.230475792071253
30
0
40
1.7050000000000054
210
0
220
-0
230
1
0
CIRCLE
5
138
100
AcDbEntity
8
0
100
AcDbCircle
10
281.97691830244997
20
-31.685289012698409
30
0
40
1.7050000000000054
210
0
220
-0
230
1
0
CIRCLE
5
139
100
AcDbEntity
8
0
100
AcDbCircle
10
292.58849914096675
20
-40.378621452161738
30
0
40
1.7050000000000054
210
0
220
-0
230
1
0
CIRCLE
5
140
100
AcDbEntity
8
0
100
AcDbCircle
10
319.03397478065779
20
-25.730475792078789
30
0
40
2.580000000000009
210
0
220
-0
230
1
0
ENDSEC
0
SECTION
2
OBJECTS
0
DICTIONARY
5
C
100
AcDbDictionary
3
ACAD_GROUP
350
D
3
ACAD_MLINESTYLE
350
17
0
DICTIONARY
5
D
100
AcDbDictionary
0
DICTIONARY
5
1A
330
C
100
AcDbDictionary
0
DICTIONARY
5
17
100
AcDbDictionary
0
ENDSEC
0
EOF
