0
SECTION
2
HEADER
9
$INSUNITS
70
4
9
$ACADVER
1
AC1014
9
$HANDSEED
5
FFFF
0
ENDSEC
0
SECTION
2
TABLES
0
TABLE
2
VPORT
5
8
100
AcDbSymbolTable
0
ENDTAB
0
TABLE
2
LTYPE
5
5
100
AcDbSymbolTable
0
LTYPE
5
14
100
AcDbSymbolTableRecord
100
AcDbLinetypeTableRecord
2
BYBLOCK
70
0
0
LTYPE
5
15
100
AcDbSymbolTableRecord
100
AcDbLinetypeTableRecord
2
BYLAYER
70
0
0
ENDTAB
0
TABLE
2
LAYER
5
2
100
AcDbSymbolTable
70
2
0
LAYER
5
50
100
AcDbSymbolTableRecord
100
AcDbLayerTableRecord
2
0
70
0
6
CONTINUOUS
0
ENDTAB
0
TABLE
2
STYLE
5
3
100
AcDbSymbolTable
70
1
0
STYLE
5
11
100
AcDbSymbolTableRecord
100
AcDbTextStyleTableRecord
2
STANDARD
70
0
0
ENDTAB
0
TABLE
2
VIEW
5
6
100
AcDbSymbolTable
70
0
0
ENDTAB
0
TABLE
2
UCS
5
7
100
AcDbSymbolTable
70
0
0
ENDTAB
0
TABLE
2
APPID
5
9
100
AcDbSymbolTable
70
2
0
APPID
5
12
100
AcDbSymbolTableRecord
100
AcDbRegAppTableRecord
2
ACAD
70
0
0
ENDTAB
0
TABLE
2
DIMSTYLE
5
A
100
AcDbSymbolTable
70
1
0
ENDTAB
0
TABLE
2
BLOCK_RECORD
5
1
100
AcDbSymbolTable
70
1
0
BLOCK_RECORD
5
1F
100
AcDbSymbolTableRecord
100
AcDbBlockTableRecord
2
*MODEL_SPACE
0
BLOCK_RECORD
5
1B
100
AcDbSymbolTableRecord
100
AcDbBlockTableRecord
2
*PAPER_SPACE
0
ENDTAB
0
ENDSEC
0
SECTION
2
BLOCKS
0
BLOCK
5
20
100
AcDbEntity
100
AcDbBlockBegin
2
*MODEL_SPACE
0
ENDBLK
5
21
100
AcDbEntity
100
AcDbBlockEnd
0
BLOCK
5
1C
100
AcDbEntity
100
AcDbBlockBegin
2
*PAPER_SPACE
0
ENDBLK
5
1D
100
AcDbEntity
100
AcDbBlockEnd
0
ENDSEC
0
SECTION
2
ENTITIES
0
CIRCLE
5
100
100
AcDbEntity
8
0
100
AcDbCircle
10
391.03397478066
20
-25.730475792070102
30
0
40
2.5799999999999552
210
0
220
0
230
1
0
CIRCLE
5
101
100
AcDbEntity
8
0
100
AcDbCircle
10
308.03397478066893
20
-7.7304757920710365
30
0
40
1.7050000000000054
210
0
220
0
230
1
0
CIRCLE
5
102
100
AcDbEntity
8
0
100
AcDbCircle
10
344.03397478066893
20
-7.7304757920710365
30
0
40
1.7049999999999699
210
0
220
0
230
1
0
CIRCLE
5
103
100
AcDbEntity
8
0
100
AcDbCircle
10
319.03397478066898
20
-37.730475792071033
30
0
40
1.7050000000000054
210
0
220
0
230
1
0
CIRCLE
5
104
100
AcDbEntity
8
0
100
AcDbCircle
10
383.03397478066006
20
-132.23047579207
30
0
40
1.0999999999999943
210
0
220
0
230
1
0
CIRCLE
5
105
100
AcDbEntity
8
0
100
AcDbCircle
10
391.03397478066
20
-132.23047579207
30
0
40
1.0999999999999943
210
0
220
0
230
1
0
CIRCLE
5
106
100
AcDbEntity
8
0
100
AcDbCircle
10
387.03397478066
20
-142.23047579207
30
0
40
3.0499999999999972
210
0
220
0
230
1
0
CIRCLE
5
107
100
AcDbEntity
8
0
100
AcDbCircle
10
260.58005938687199
20
-142.23047579207
30
0
40
3.0499999999999972
210
0
220
0
230
1
0
CIRCLE
5
108
100
AcDbEntity
8
0
100
AcDbCircle
10
387.03397478066
20
-34.230475792070102
30
0
40
2.5799999999999552
210
0
220
0
230
1
0
CIRCLE
5
109
100
AcDbEntity
8
0
100
AcDbCircle
10
364.03397478066012
20
-149.53047579207004
30
0
40
2.5800000000000267
210
0
220
0
230
1
0
CIRCLE
5
110
100
AcDbEntity
8
0
100
AcDbCircle
10
368.03397478065995
20
-38.230475792070102
30
0
40
2.5800000000000267
210
0
220
0
230
1
0
CIRCLE
5
111
100
AcDbEntity
8
0
100
AcDbCircle
10
391.03397478066
20
-3.2304757920701266
30
0
40
2.5800000000000267
210
0
220
0
230
1
0
CIRCLE
5
112
100
AcDbEntity
8
0
100
AcDbCircle
10
332.03397478066
20
-8.4804757920700702
30
0
40
3.1750000000000251
210
0
220
0
230
1
0
LWPOLYLINE
5
113
100
AcDbEntity
8
0
100
AcDbPolyline
90
6
70
1
43
0.0
10
233.36410179958199
20
-68.473265024485002
10
233.36410179958304
20
-51.337802372572597
42
-0.57735026918943222
10
235.61410179958227
20
-50.038764266895505
10
250.45384776173805
20
-58.606495592852156
42
-0.57735026918963084
10
250.45384776173796
20
-61.204571804205479
10
235.61410179958278
20
-69.772303130162953
42
-0.57735026918943877
0
LWPOLYLINE
5
114
100
AcDbEntity
8
0
100
AcDbPolyline
90
6
70
1
43
0.0
10
235.61410179958301
20
-139.435503130162
10
250.45384776173816
20
-130.86777180420529
42
-0.57735026918958576
10
252.70384776173799
20
-132.16680990988203
10
252.70384776173799
20
-149.30227256179501
42
-0.57735026918969767
10
250.45384776173773
20
-150.60131066747149
10
235.61410179958344
20
-142.03357934151427
42
-0.57735026918957966
0
LWPOLYLINE
5
115
100
AcDbEntity
8
0
100
AcDbPolyline
90
6
70
1
43
0.0
10
235.61410179958301
20
-74.772303130161617
10
250.45384776173796
20
-66.204571804205472
42
-0.57735026918963117
10
252.70384776173799
20
-67.503609909882101
10
252.70384776173799
20
-84.639072561794521
42
-0.57735026918962318
10
250.45384776173802
20
-85.938110667471193
10
235.61410179958301
20
-77.370379341515005
42
-0.57735026918962407
0
LWPOLYLINE
5
116
100
AcDbEntity
8
0
100
AcDbPolyline
90
6
70
1
43
0.0
10
235.61410179958202
20
-82.370364266895905
10
250.45384776173805
20
-90.938095592852164
42
-0.57735026918961219
10
250.45384776173805
20
-93.536171804205438
10
235.61410179958213
20
-102.10390313016218
42
-0.57735026918939625
10
233.36410179958304
20
-100.80486502448501
10
233.36410179958347
20
-83.669402372572605
42
-0.57735026918942778
0
LWPOLYLINE
5
117
100
AcDbEntity
8
0
100
AcDbPolyline
90
6
70
1
43
0.0
10
235.61410179958202
20
-114.701964266896
10
250.45384776173788
20
-123.26969559285226
42
-0.57735026918959198
10
250.4538477617383
20
-125.86777180420549
10
235.61410179958213
20
-134.43550313016218
42
-0.57735026918939436
10
233.36410179958304
20
-133.13646502448501
10
233.36410179958321
20
-116.00100237257301
42
-0.57735026918939436
0
LWPOLYLINE
5
118
100
AcDbEntity
8
0
100
AcDbPolyline
90
6
70
1
43
0.0
10
235.61410179958202
20
-107.103903130162
10
250.45384776173805
20
-98.536171804205438
42
-0.57735026918961918
10
252.70384776173799
20
-99.83520990988211
10
252.70384776173799
20
-116.97067256179501
42
-0.57735026918969767
10
250.45384776173773
20
-118.2697106674715
10
235.61410179958244
20
-109.70197934151427
42
-0.57735026918959342
0
LWPOLYLINE
5
119
100
AcDbEntity
8
0
100
AcDbPolyline
90
6
70
1
43
0.0
10
340.00141288633699
20
-134.81060281099201
10
348.56914421229249
20
-149.6503487731477
42
-0.57735026918970367
10
347.27010610661603
20
-151.90034877314804
10
330.13464345470504
20
-151.90034877314804
42
-0.57735026918958265
10
328.83560534902824
20
-149.65034877314818
10
337.40333667498334
20
-134.81060281099158
42
-0.57735026918958754
0
LWPOLYLINE
5
120
100
AcDbEntity
8
0
100
AcDbPolyline
90
6
70
1
43
0.0
10
281.637235917395
20
-132.56060281099201
10
298.77269856930701
20
-132.56060281099201
42
-0.57735026918959331
10
300.07173667498375
20
-134.81060281099187
10
291.50400534902775
20
-149.6503487731479
42
-0.57735026918959198
10
288.90592913767455
20
-149.65034877314829
10
280.33819781171826
20
-134.81060281099187
42
-0.57735026918958909
0
LWPOLYLINE
5
121
100
AcDbEntity
8
0
100
AcDbPolyline
90
6
70
1
43
0.0
10
313.96883591739498
20
-132.56060281099201
10
331.10429856930699
20
-132.56060281099198
42
-0.57735026918958599
10
332.40333667498373
20
-134.81060281099187
10
323.83560534902779
20
-149.65034877314784
42
-0.57735026918959242
10
321.23752913767453
20
-149.65034877314832
10
312.66979781171824
20
-134.81060281099187
42
-0.57735026918959298
0
LWPOLYLINE
5
122
100
AcDbEntity
8
0
100
AcDbPolyline
90
6
70
1
43
0.0
10
364.73493667498406
20
-134.81060281099201
10
356.16720534902782
20
-149.65034877314787
42
-0.57735026918958465
10
353.56912913767462
20
-149.65034877314832
10
345.00139781171822
20
-134.81060281099187
42
-0.57735026918959309
10
346.30043591739502
20
-132.56060281099201
10
363.43589856930703
20
-132.56060281099172
42
-0.57735026918959298
0
LWPOLYLINE
5
123
100
AcDbEntity
8
0
100
AcDbPolyline
90
6
70
1
43
0.0
10
275.33821288633698
20
-134.81060281099201
10
283.90594421229275
20
-149.65034877314815
42
-0.57735026918959309
10
282.60690610661601
20
-151.90034877314804
10
265.47144345470502
20
-151.90034877314804
42
-0.57735026918958599
10
264.17240534902828
20
-149.65034877314818
10
272.74013667498326
20
-134.81060281099158
42
-0.57735026918959154
0
LWPOLYLINE
5
124
100
AcDbEntity
8
0
100
AcDbPolyline
90
6
70
1
43
0.0
10
307.66981288633701
20
-134.81060281099201
10
316.23754421229273
20
-149.65034877314818
42
-0.5773502691895851
10
314.93850610661599
20
-151.90034877314804
10
297.803043454705
20
-151.90034877314804
42
-0.57735026918958599
10
296.50400534902826
20
-149.65034877314818
10
305.07173667498324
20
-134.81060281099158
42
-0.57735026918959531
0
LWPOLYLINE
5
125
100
AcDbEntity
8
0
100
AcDbPolyline
90
4
70
1
43
0.0
10
385.03397478066006
20
-24.730475792070102
10
385.03397478066006
20
-26.730475792070099
10
373.03397478066006
20
-26.730475792070099
10
373.03397478066006
20
-24.730475792070102
0
CIRCLE
5
126
100
AcDbEntity
8
0
100
AcDbCircle
10
265.68397478064998
20
-8.8804757921000501
30
0
40
1.7500000000000102
210
0
220
-0
230
1
0
CIRCLE
5
127
100
AcDbEntity
8
0
100
AcDbCircle
10
234.68397478065199
20
-39.880475792059002
30
0
40
1.7500000000000102
210
0
220
-0
230
1
0
CIRCLE
5
128
100
AcDbEntity
8
0
100
AcDbCircle
10
265.68397478069102
20
-39.8804757921001
30
0
40
1.7500000000000102
210
0
220
-0
230
1
0
CIRCLE
5
129
100
AcDbEntity
8
0
100
AcDbCircle
10
234.68397478065
20
-8.8804757920593609
30
0
40
1.7500000000000102
210
0
220
-0
230
1
0
CIRCLE
5
130
100
AcDbEntity
8
0
100
AcDbCircle
10
250.18397478066004
20
-24.380475792070104
30
0
40
11.500000000000002
210
0
220
-0
230
1
0
CIRCLE
5
131
100
AcDbEntity
8
0
100
AcDbCircle
10
395.28397478066006
20
-40.730475792070102
30
0
40
1.00000000000001
210
0
220
-0
230
1
0
CIRCLE
5
132
100
AcDbEntity
8
0
100
AcDbCircle
10
402.78397478066006
20
-10.7304757920701
30
0
40
1.00000000000001
210
0
220
-0
230
1
0
CIRCLE
5
133
100
AcDbEntity
8
0
100
AcDbCircle
10
402.78397478066006
20
-40.730475792070102
30
0
40
1.00000000000001
210
0
220
-0
230
1
0
CIRCLE
5
134
100
AcDbEntity
8
0
100
AcDbCircle
10
395.28397478066006
20
-10.7304757920701
30
0
40
1.00000000000001
210
0
220
-0
230
1
0
LWPOLYLINE
5
135
100
AcDbEntity
8
0
100
AcDbPolyline
90
32
70
1
43
0.0
10
407.03397478066
20
-10.810150122034992
42
0.21521536069942793
10
405.84935915216357
20
-8.1854605761654007
10
400.32147115521292
20
-3.3090036650220265
10
394.94860032355427
20
1.3165789534679035
42
0.51562672833740486
10
385.45602054929503
20
-1.0199494762806465
42
-0.3075528976172443
10
382.20221391433211
20
-3.2304757920701239
10
232.53397478066003
20
-3.2304757920700706
42
0.41421356237308721
10
229.03397478066
20
-6.7304757920700622
10
229.03397478066
20
-142.36851583205402
42
0.26794919243112797
10
229.78397478066012
20
-143.66755393773073
10
251.19551751254102
20
-156.02951389774699
42
0.13165249758735995
10
251.94551751254099
20
-156.23047579207
10
381.50769533903116
20
-156.23047579207
42
0.26794919243114368
10
384.5387842522768
20
-154.48047579206991
10
385.40480965606105
20
-152.98047579207019
42
-0.26794919243113952
10
391.03397478066
20
-149.73047579207
10
391.43181805092064
20
-149.73047579206997
42
0.26794919243112059
10
394.46290696416622
20
-147.98047579206985
10
402.93256207876829
20
-133.31060281099218
42
-0.26794919243115806
10
404.23160018444503
20
-132.56060281099201
10
407.03397478066
20
-132.56060281099201
10
407.03397478066
20
-128.23047579207
10
268.10832282845001
20
-128.23047579207002
42
-0.131652497587367
10
267.35832282845018
20
-128.02951389774674
10
257.78397478066017
20
-122.50176147503976
42
-0.26794919243115334
10
257.03397478066
20
-121.20272336936301
10
257.03397478066
20
-49.730475792070109
42
-0.41421356237309503
10
258.53397478066
20
-48.230475792070102
10
399.5842273123543
20
-48.230475792070102
42
0.19891236737965379
10
402.05910104650718
20
-47.205349526223046
10
406.00884851481328
20
-43.255602057917628
42
0.19891236737965864
10
407.03397478065995
20
-40.780728323764365
0
LWPOLYLINE
5
136
100
AcDbEntity
8
0
100
AcDbPolyline
90
8
70
1
43
0.0
10
369.99348192789517
20
-150.22637417693241
42
0.33327418096068295
10
366.37187601151203
20
-144.00469821468047
42
-0.4508202515981149
10
365.65731321354832
20
-141.87325382033316
10
369.73493667498349
20
-134.81060281099172
42
-0.57735026918959109
10
372.33301288633675
20
-134.81060281099215
10
380.90074421229275
20
-149.65034877314815
42
-0.57735026918959309
10
379.60170610661601
20
-151.90034877314804
10
371.48335871470402
20
-151.90034877314807
42
-0.44868550481818092
0
ENDSEC
0
SECTION
2
OBJECTS
0
DICTIONARY
5
C
100
AcDbDictionary
3
ACAD_GROUP
350
D
3
ACAD_MLINESTYLE
350
17
0
DICTIONARY
5
D
100
AcDbDictionary
0
DICTIONARY
5
1A
330
C
100
AcDbDictionary
0
DICTIONARY
5
17
100
AcDbDictionary
0
ENDSEC
0
EOF
